<svg xmlns="http://www.w3.org/2000/svg" viewBox="0 0 600 400" width="600" height="400">
  
  

  <g class="e">
    <path d="M8 8 h10 M8 8 v10"></path>
    <path d="M592 8 h-10 M592 8 v10"></path>
    <path d="M8 392 h10 M8 392 v-10"></path>
    <path d="M592 392 h-10 M592 392 v-10"></path>
  </g>

  <text x="300" y="32" text-anchor="middle" class="cap">fig · ii · the · quality · gates</text>

  
  <g transform="translate(80,180)">
    <path d="M-30 -40 L30 -40 L10 0 L-10 0 Z" class="e2"></path>
    <path d="M-25 -35 L25 -35" class="e" stroke-dasharray="1 2"></path>
    <text text-anchor="middle" y="20" class="h">the task</text>
    <text text-anchor="middle" y="36" class="cap">input</text>
  </g>

  
  <g class="e2">
    <path d="M120 200 H160"></path>
    <path d="M240 200 H280"></path>
    <path d="M360 200 H400"></path>
    <path d="M480 200 H520"></path>
  </g>

  <g transform="translate(200,200)">
    <circle r="28" class="e2"></circle>
    <circle r="22" class="e" stroke-dasharray="1 3"></circle>
    <text text-anchor="middle" y="4" class="serif">lint</text>
    <text text-anchor="middle" y="-40" class="cap">gate · i</text>
  </g>

  <g transform="translate(320,200)">
    <circle r="28" class="e2"></circle>
    <circle r="22" class="e" stroke-dasharray="1 3"></circle>
    <text text-anchor="middle" y="4" class="serif">test</text>
    <text text-anchor="middle" y="-40" class="cap">gate · ii</text>
  </g>

  <g transform="translate(440,200)">
    <circle r="28" class="e2"></circle>
    <circle r="22" class="e" stroke-dasharray="1 3"></circle>
    <text text-anchor="middle" y="4" class="serif">audit</text>
    <text text-anchor="middle" y="-40" class="cap">gate · iii</text>
  </g>

  
  <g transform="translate(550,200)">
    <circle r="24" class="e2" stroke="#C03A2B"></circle>
    <path d="M-10 0 L-3 7 L12 -8" stroke="#C03A2B" stroke-width="2.5" fill="none" stroke-linecap="round" stroke-linejoin="round"></path>
    <text text-anchor="middle" y="40" class="cap" fill="#C03A2B">sealed</text>
  </g>

  
  <g transform="translate(300,300)">
    <path d="M-240 0 H240" class="e"></path>
    <text text-anchor="middle" y="22" class="serif">each gate must be passed, else the loop converges anew</text>
    <text text-anchor="middle" y="40" class="cap">∴ · convergence · is · the · only · exit</text>
  </g>

  <text x="590" y="388" text-anchor="end" class="cap">fol · iv</text>
</svg>